<svg width="116" height="116" viewBox="0 0 116 116" fill="none" xmlns="http://www.w3.org/2000/svg">
<circle cx="58" cy="58" r="58" fill="#043488"/>
<path d="M23.5 92.5V54.5C23.5 42 44 32 57 43.5C71 32 90.5 42.5 90.5 54.5V92.5H73.5V56.5C73.5 51.5 65.5 51.5 65.5 56.5V92.5H48.5V56.5C48.5 51.5 40.5 51.5 40.5 56.5V92.5H23.5Z" fill="#E31E24"/>
<path fill-rule="evenodd" clip-rule="evenodd" d="M92.5 94.5V54.5C92.5 48.0962 87.4043 42.0565 80.5 38.9505C78.3133 37.9668 75.9451 37.2774 73.5 36.964C67.9929 36.258 62.0951 37.459 57 41.5C42.5 30 21.5 41.5 21.5 54.5V94.5H42.5V56.5C42.5 54 46.5 54 46.5 56.5V94.5H67.5V56.5C67.5 54 71.5 54 71.5 56.5V94.5H92.5ZM23.5 54.5V92.5H40.5V56.5C40.5 51.5 48.5 51.5 48.5 56.5V92.5H65.5V56.5C65.5 51.5 73.5 51.5 73.5 56.5V92.5H90.5V54.5C90.5 42.5 71 32 57 43.5C44 32 23.5 42 23.5 54.5Z" fill="white"/>
<path d="M73.5 30.5V36.964C75.9451 37.2774 78.3133 37.9668 80.5 38.9505V30.5C80.5 26.5 73.5 26.5 73.5 30.5Z" fill="white"/>
<path d="M73.5 36.964C67.9929 36.258 62.0951 37.459 57 41.5C42.5 30 21.5 41.5 21.5 54.5V94.5H42.5V56.5C42.5 54 46.5 54 46.5 56.5V94.5H67.5V56.5C67.5 54 71.5 54 71.5 56.5V94.5H92.5V54.5C92.5 48.0962 87.4043 42.0565 80.5 38.9505M73.5 36.964V30.5C73.5 26.5 80.5 26.5 80.5 30.5V38.9505M73.5 36.964C75.9451 37.2774 78.3133 37.9668 80.5 38.9505M23.5 92.5V54.5C23.5 42 44 32 57 43.5C71 32 90.5 42.5 90.5 54.5V92.5H73.5V56.5C73.5 51.5 65.5 51.5 65.5 56.5V92.5H48.5V56.5C48.5 51.5 40.5 51.5 40.5 56.5V92.5H23.5Z" stroke="black"/>
<path d="M67.5 27C75.3245 21.3796 79.5226 21.2274 87.5 27M90 23.6557C80.1662 16.3996 74.6927 16.4261 65 23.6557M63 20.3115C73.7708 11.7951 80.1355 11.9979 92 20.3115" stroke="white" stroke-width="2" stroke-linecap="round" stroke-linejoin="round"/>
</svg>
