<svg width="30" height="30" viewBox="0 0 30 30" fill="none" xmlns="http://www.w3.org/2000/svg">
<path d="M0 4.16667C0 18.434 11.566 30 25.8333 30C26.477 30 27.1152 29.9765 27.7472 29.9302C28.4723 29.877 28.8348 29.8505 29.165 29.6605C29.4383 29.5032 29.6975 29.2242 29.8345 28.94C30 28.597 30 28.1968 30 27.3967V22.7012C30 22.0282 30 21.6917 29.8892 21.4033C29.7915 21.1485 29.6325 20.9217 29.4265 20.7427C29.1933 20.54 28.877 20.425 28.2447 20.195L22.9 18.2515C22.1642 17.984 21.7962 17.8502 21.4472 17.8728C21.1393 17.8928 20.8432 17.998 20.5915 18.1763C20.3062 18.3785 20.1048 18.7142 19.702 19.3857L18.3333 21.6667C13.9168 19.6665 10.3365 16.0815 8.33333 11.6667L10.6144 10.298C11.2858 9.89522 11.6214 9.6938 11.8237 9.40843C12.002 9.1568 12.1072 8.86062 12.1272 8.55283C12.1498 8.20378 12.016 7.83588 11.7485 7.10008L9.80498 1.75535C9.575 1.12293 9.46002 0.806717 9.25737 0.5735C9.07835 0.367483 8.85148 0.208584 8.5967 0.11075C8.30827 1.98682e-07 7.9718 0 7.29887 0H2.60335C1.80313 0 1.40302 1.24176e-07 1.05997 0.165417C0.775833 0.302433 0.4969 0.561683 0.3395 0.83505C0.149467 1.16512 0.122917 1.5277 0.0698165 2.25288C0.0235498 2.88477 0 3.52297 0 4.16667Z" fill="black"/>
</svg>
